<?xml version="1.0" encoding="utf-8"?>
<!-- Generator: Adobe Illustrator 17.0.0, SVG Export Plug-In . SVG Version: 6.00 Build 0)  -->
<!DOCTYPE svg PUBLIC "-//W3C//DTD SVG 1.1//EN" "http://www.w3.org/Graphics/SVG/1.1/DTD/svg11.dtd">
<svg version="1.1" id="Layer_1" xmlns="http://www.w3.org/2000/svg" xmlns:xlink="http://www.w3.org/1999/xlink" x="0px" y="0px"
	 width="19.6480026px" height="30px" viewBox="0 0 19.6480026 30" style="enable-background:new 0 0 19.6480026 30;"
	 xml:space="preserve">
<style type="text/css">
	.st0{fill:#0090D8;}
</style>
<g>
	<path class="st0" d="M0,30v-3.1726265h3.6652341V3.1107192H0V0h7.1149144v30H0z"/>
	<path class="st0" d="M9.5773373,13.2671614c1.7664375,0,3.0986662-0.7746668,3.0986662-2.8815622V5.9855418
		c0-4.0593925,2.2931614-5.9804339,6.0114775-5.9804339h0.9605217v3.1295049h-0.9296818
		c-1.5180836,0-2.5719433,0.7127838-2.5719433,2.7577965v5.2057676c0,1.9520855-1.1463747,3.3774471-3.1295042,3.904377
		c1.9831295,0.4956799,3.1295042,1.9210415,3.1295042,3.904171v5.1747246c0,2.0452175,1.0538597,2.7890453,2.5719433,2.7890453
		h0.9296818V30h-0.9605217c-3.7183161,0-6.0114775-1.9522915-6.0114775-6.0114784v-4.4000568
		c0-2.1071014-1.3322287-2.8817673-3.0986662-2.8817673V13.2671614z"/>
</g>
</svg>
