<svg id="Layer_1" xmlns="http://www.w3.org/2000/svg" width="30" height="30" viewBox="0 0 30 30"><style>.st0{fill:#dd4b39}.st1{fill:#fff}</style><circle class="st0" cx="15" cy="15" r="15"/><path class="st1" d="M16.059 19.741c1.12-1.383 1.373-3.225 1.253-4.947-1.973-.017-3.946-.012-5.916-.008-.003.703 0 1.402.004 2.105 1.181.033 2.362.018 3.544.042-.299 1.022-.978 1.973-2.008 2.341-1.991.877-4.531-.268-5.156-2.357-.757-1.999.481-4.412 2.524-4.992 1.268-.447 2.572.056 3.657.714a28.164 28.164 0 0 0 1.568-1.618c-1.233-1.03-2.815-1.662-4.442-1.524-3.192.038-5.986 2.985-5.865 6.174-.007.323.015.643.064.959.338 2.212 1.967 4.185 4.105 4.887 2.304.775 5.136.196 6.668-1.776zm6.849-6.728h-1.757c-.005.589-.012 1.179-.014 1.766l-1.766.012v1.76c.588.003 1.179.005 1.766.012.005.588.005 1.175.012 1.765.584 0 1.172-.003 1.76 0 .003-.59.005-1.178.012-1.768l1.765-.009v-1.76c-.587-.003-1.178-.005-1.765-.012-.005-.587-.01-1.177-.013-1.766z"/></svg>