<svg id="Layer_1" xmlns="http://www.w3.org/2000/svg" width="30" height="30" viewBox="0 0 30 30"><style>.st0{fill:#c536a4}.st1{fill:#fff}</style><path class="st0" d="M27.728 7.091a15.05 15.05 0 0 0-4.819-4.819 14.9 14.9 0 0 0-15.818 0 15.03 15.03 0 0 0-4.819 4.819 14.9 14.9 0 0 0 0 15.818 15.05 15.05 0 0 0 4.819 4.819 14.9 14.9 0 0 0 15.818 0 15.05 15.05 0 0 0 4.819-4.819 14.9 14.9 0 0 0 0-15.818zm-4.217 12.126a4.299 4.299 0 0 1-4.294 4.294h-8.434a4.299 4.299 0 0 1-4.294-4.294v-8.434a4.299 4.299 0 0 1 4.294-4.294h8.434a4.299 4.299 0 0 1 4.294 4.294v8.434z"/><path class="st0" d="M15 12.469A2.535 2.535 0 0 0 12.468 15 2.535 2.535 0 0 0 15 17.532 2.534 2.534 0 0 0 17.531 15 2.533 2.533 0 0 0 15 12.469z"/><path class="st0" d="M19.217 8.341h-8.434a2.444 2.444 0 0 0-2.441 2.441v8.434a2.445 2.445 0 0 0 2.441 2.442h8.434a2.445 2.445 0 0 0 2.442-2.442v-8.434a2.445 2.445 0 0 0-2.442-2.441zM15 19.384A4.39 4.39 0 0 1 10.616 15 4.39 4.39 0 0 1 15 10.616 4.39 4.39 0 0 1 19.384 15 4.39 4.39 0 0 1 15 19.384zm4.54-7.731z"/><path class="st1" d="M15 10.616A4.39 4.39 0 0 0 10.616 15 4.39 4.39 0 0 0 15 19.384 4.39 4.39 0 0 0 19.384 15 4.39 4.39 0 0 0 15 10.616zm0 6.916A2.536 2.536 0 0 1 12.468 15 2.535 2.535 0 0 1 15 12.469 2.534 2.534 0 0 1 17.531 15 2.534 2.534 0 0 1 15 17.532z"/><path class="st1" d="M19.217 6.489h-8.434a4.299 4.299 0 0 0-4.294 4.294v8.434a4.299 4.299 0 0 0 4.294 4.294h8.434a4.299 4.299 0 0 0 4.294-4.294v-8.434a4.299 4.299 0 0 0-4.294-4.294zm2.442 12.728a2.445 2.445 0 0 1-2.442 2.442h-8.434a2.444 2.444 0 0 1-2.441-2.442v-8.434a2.444 2.444 0 0 1 2.441-2.441h8.434a2.445 2.445 0 0 1 2.442 2.441v8.434z"/><circle class="st1" cx="19.54" cy="10.616" r="1.037"/></svg>