<svg id="Layer_1" xmlns="http://www.w3.org/2000/svg" width="30" height="30" viewBox="0 0 30 30"><style>.st0{fill:#0084b1}.st1{fill:#fff}</style><circle class="st0" cx="15" cy="15" r="15"/><path class="st1" d="M9.63 7.936c-.941 0-1.71.762-1.71 1.696 0 .963.794 1.719 1.699 1.7.891.021 1.703-.716 1.705-1.694A1.706 1.706 0 0 0 9.63 7.936zm-1.004 4.696a.468.468 0 0 0-.468.468v8.494c0 .258.21.468.468.468h1.991a.468.468 0 0 0 .468-.468V13.1a.469.469 0 0 0-.468-.468H8.626zm10.229-.241h-.511a2.863 2.863 0 0 0-2.51 1.481l-.026-.004v-1.042a.194.194 0 0 0-.194-.194H13.13a.194.194 0 0 0-.194.194v9.041c0 .107.087.194.194.194l2.538.001a.194.194 0 0 0 .194-.194v-5.224c0-.903.72-1.653 1.623-1.663a1.638 1.638 0 0 1 1.661 1.642v5.245c0 .107.087.194.194.194h2.545a.194.194 0 0 0 .194-.194v-6.254a3.223 3.223 0 0 0-3.224-3.223z"/></svg>