<svg id="Layer_1" xmlns="http://www.w3.org/2000/svg" width="30" height="30" viewBox="0 0 30 30"><style>.st0{fill:#50abf1}.st1{fill:#fff}</style><circle class="st0" cx="15" cy="15" r="15"/><path class="st1" d="M23.706 9.361a7.214 7.214 0 0 1-2.277.87 3.58 3.58 0 0 0-2.618-1.132 3.585 3.585 0 0 0-3.492 4.403 10.18 10.18 0 0 1-7.39-3.747 3.587 3.587 0 0 0 1.108 4.788 3.56 3.56 0 0 1-1.624-.449v.046a3.588 3.588 0 0 0 2.876 3.515 3.579 3.579 0 0 1-1.619.063 3.591 3.591 0 0 0 3.35 2.49 7.19 7.19 0 0 1-4.453 1.534c-.29 0-.576-.016-.855-.049a10.145 10.145 0 0 0 5.495 1.611c6.595 0 10.202-5.464 10.202-10.202 0-.155-.004-.31-.01-.464a7.266 7.266 0 0 0 1.788-1.855 7.143 7.143 0 0 1-2.059.564 3.618 3.618 0 0 0 1.578-1.986z"/></svg>