<svg id="Layer_1" xmlns="http://www.w3.org/2000/svg" width="30" height="30" viewBox="0 0 30 30"><style>.st0{fill:#dc472e}.st1{fill:#fff}</style><path class="st0" d="M28.098 7.699a15.062 15.062 0 0 0-5.797-5.797A14.93 14.93 0 0 0 15 0a14.93 14.93 0 0 0-7.301 1.902 15.062 15.062 0 0 0-5.797 5.797C.694 9.861 0 12.348 0 15s.694 5.139 1.902 7.301a15.062 15.062 0 0 0 5.797 5.797C9.861 29.306 12.348 30 15 30s5.139-.694 7.301-1.902a15.062 15.062 0 0 0 5.797-5.797A14.93 14.93 0 0 0 30 15a14.93 14.93 0 0 0-1.902-7.301z"/><path class="st0" d="M13.421 21.279c0 .032 0 .072-.018.095a1.012 1.012 0 0 1-.453.354c-.164.06-.294-.013-.329-.183-.014-.067-.014-.138-.014-.207a1646.29 1646.29 0 0 0-.006-3.898h-.935c0 .035-.001 3.655.001 4.339.001.185.02.369.097.541a.54.54 0 0 0 .425.338c.15.026.297.009.439-.04.292-.101.521-.29.722-.518l.071-.076v.568h.937v-5.161l-.938.002v3.846zm-1.753-5.673H8.415v1.001h1.096v5.986h1.059v-5.988h1.098zm8.869 5.155v.663a.419.419 0 1 1-.838 0v-1.289h1.799s.01-.899.003-1.308a2.756 2.756 0 0 0-.052-.521c-.093-.441-.331-.774-.775-.92a1.613 1.613 0 0 0-.408-.074c-.457-.029-.857.101-1.169.451-.274.306-.37.675-.37 1.075-.002.765-.005 1.531.002 2.296.002.195.024.394.068.583.095.408.318.727.71.905.287.13.59.136.896.092.493-.072.829-.337.992-.813.122-.357.108-1.139.108-1.139h-.966zm-.838-2.15a.42.42 0 0 1 .838 0v.724h-.838v-.724zm-5.223-6.857a.397.397 0 0 0 .397-.397V8.554a.397.397 0 0 0-.794 0v2.802c0 .22.178.398.397.398zm3.378 6.089c-.198-.421-.613-.533-.974-.443a1.072 1.072 0 0 0-.541.344.936.936 0 0 0-.101.16v-2.3h-.939v6.987h.939V22.2l.091.097c.216.234.477.362.8.365.397.004.673-.188.798-.565.058-.175.077-.356.077-.539.001-.976.001-1.953-.001-2.93 0-.27-.033-.536-.149-.785zm-.818 3.598a.745.745 0 0 1-.017.156c-.043.205-.199.296-.42.251a.616.616 0 0 1-.328-.202l-.031-.04v-.076l-.002-3.102s.02-.058.064-.096c.111-.098.232-.159.384-.144.13.013.234.072.282.193a.815.815 0 0 1 .065.291c.006.922.004 1.845.003 2.769z"/><path class="st1" d="M16.969 18.38c-.048-.12-.152-.18-.282-.193-.152-.015-.274.047-.384.144a.252.252 0 0 0-.064.096l.002 3.102v.076s.026.036.031.04a.62.62 0 0 0 .328.202c.221.045.377-.047.42-.251a.745.745 0 0 0 .017-.156c.001-.924.003-1.847-.002-2.77a.849.849 0 0 0-.066-.29zm3.568.231a.42.42 0 0 0-.838 0v.724h.838v-.724z"/><path class="st1" d="M20.508 13.993a256.047 256.047 0 0 0-11.016 0A2.343 2.343 0 0 0 7.2 16.336v5.734a2.344 2.344 0 0 0 2.292 2.344c3.672.079 7.345.079 11.016 0a2.344 2.344 0 0 0 2.293-2.344v-5.734a2.344 2.344 0 0 0-2.293-2.343zm-9.938 8.6H9.511v-5.986H8.415v-1.001h3.253v.999H10.57v5.988zm3.789-2.485v2.485h-.937v-.568l-.071.076c-.202.228-.431.417-.722.518a.885.885 0 0 1-.439.04.54.54 0 0 1-.425-.338 1.304 1.304 0 0 1-.097-.541c-.002-.684-.001-4.304-.001-4.339h.935c.002.032.005 2.63.006 3.898 0 .069.001.14.014.207.035.17.165.243.329.183.189-.069.332-.199.453-.354.018-.022.018-.063.018-.095v-3.844l.938-.002v2.674zm3.567 1.988c-.125.377-.401.569-.798.565a1.06 1.06 0 0 1-.8-.365 19.817 19.817 0 0 0-.091-.097v.392h-.939v-6.987h.939v2.3s.053-.106.101-.16c.146-.163.322-.289.541-.344.36-.09.776.021.974.443.117.249.149.515.149.785.002.976.002 1.953.001 2.93 0 .183-.019.363-.077.538zm3.469-.196c-.163.477-.499.741-.992.813-.306.045-.609.038-.896-.092-.393-.177-.615-.497-.71-.905a2.73 2.73 0 0 1-.068-.583c-.008-.765-.004-1.531-.002-2.296.001-.4.096-.769.37-1.075.313-.35.713-.481 1.169-.451.138.008.278.031.408.074.444.146.682.479.775.92.036.17.049.347.052.521.008.408-.003 1.308-.003 1.308h-1.799v1.289a.419.419 0 1 0 .838 0v-.663h.966c0 .001.014.783-.108 1.14zm-2.026-9.35V7.363h-.961v3.847c0 .032.003.074-.014.096-.124.156-.27.289-.461.355-.157.054-.278-.022-.306-.185a.908.908 0 0 1-.014-.157V7.362h-.954v4.435c.001.129.024.263.062.387.115.372.421.486.78.416.234-.046.434-.162.611-.317.1-.088.191-.186.297-.291l-.001.557h.961zM13.16 5.527h-1.094s-.437 1.857-.646 2.736h-.001l-.646-2.736H9.68l1.216 4.03a.48.48 0 0 1 .02.141l-.001 2.85h1.009v-2.85a.48.48 0 0 1 .02-.141l1.216-4.03zm1.316 7.151c.76 0 1.376-.616 1.376-1.376V8.609a1.376 1.376 0 1 0-2.752 0v2.693c0 .76.616 1.376 1.376 1.376zm-.397-4.124a.397.397 0 0 1 .794 0v2.802a.397.397 0 0 1-.794 0V8.554z"/></svg>