<svg id="Layer_1" xmlns="http://www.w3.org/2000/svg" width="30" height="30" viewBox="0 0 30 30"><style>.st0{fill:#fff}</style><path d="M0 0v30h30V0H0zm17.85 23.761c-.457.088-.619-.192-.619-.433 0-.295.011-1.266.011-2.469 0-.84-.288-1.389-.611-1.667 2.005-.223 4.109-.984 4.109-4.441 0-.983-.348-1.786-.925-2.415.093-.228.401-1.143-.09-2.382 0 0-.754-.242-2.472.923A8.64 8.64 0 0 0 15 10.574a8.586 8.586 0 0 0-2.253.303c-1.719-1.165-2.475-.923-2.475-.923-.49 1.239-.181 2.154-.088 2.382a3.476 3.476 0 0 0-.926 2.415c0 3.449 2.101 4.221 4.099 4.448-.257.225-.49.622-.571 1.203-.513.23-1.816.628-2.619-.748 0 0-.475-.864-1.379-.927 0 0-.879-.011-.062.547 0 0 .59.277.999 1.317 0 0 .528 1.75 3.032 1.206.004.751.012 1.317.012 1.531 0 .239-.164.516-.614.434A9 9 0 0 1 6 15.223a9 9 0 0 1 18 0 9.001 9.001 0 0 1-6.15 8.538z"/><path class="st0" d="M14.999 6.222C10.03 6.222 6 10.252 6 15.223a9 9 0 0 0 6.155 8.539c.45.083.614-.195.614-.434 0-.214-.008-.78-.012-1.531-2.503.544-3.032-1.206-3.032-1.206-.409-1.04-.999-1.317-.999-1.317-.817-.558.062-.547.062-.547.903.064 1.379.927 1.379.927.803 1.375 2.106.978 2.619.748.082-.582.314-.978.571-1.203-1.998-.227-4.099-.999-4.099-4.448 0-.983.351-1.786.926-2.415-.093-.228-.401-1.143.088-2.382 0 0 .756-.242 2.475.923A8.628 8.628 0 0 1 15 10.574a8.597 8.597 0 0 1 2.253.303c1.718-1.165 2.472-.923 2.472-.923.491 1.239.182 2.154.09 2.382.577.629.925 1.432.925 2.415 0 3.457-2.104 4.218-4.109 4.441.323.278.611.827.611 1.667 0 1.203-.011 2.174-.011 2.469 0 .241.162.521.619.433a9.001 9.001 0 0 0-2.851-17.539z"/></svg>