<svg id="Layer_1" xmlns="http://www.w3.org/2000/svg" width="30" height="30" viewBox="0 0 30 30"><style>.st0{fill:#dd4b39}.st1{fill:#fff}</style><path class="st0" d="M0 0h30v30H0z"/><path class="st1" d="M11.21 13.604v2.658h3.563c-.394 1.745-1.76 2.617-3.563 2.617-2.152 0-3.896-1.782-3.896-3.935 0-2.151 1.745-3.986 3.896-3.986 1.022 0 1.902.346 2.546.994l1.9-1.9c-1.128-1.095-2.677-1.726-4.446-1.726a6.619 6.619 0 1 0 0 13.237c3.253 0 5.765-1.932 6.278-5.302.064-.418.097-.857.097-1.317 0-.464-.038-.913-.113-1.341H11.21zm11.908-2.134h-1.647v2.319h-2.32v1.649h2.32v2.318h1.647v-2.318h2.319v-1.649h-2.319z"/></svg>