<svg id="Layer_1" xmlns="http://www.w3.org/2000/svg" width="30" height="30" viewBox="0 0 30 30"><style>.st0{fill:#c536a4}.st1{fill:#fff}</style><path class="st0" d="M0 0h30v30H0z"/><path class="st1" d="M15 9.833a5.172 5.172 0 0 0-5.166 5.166A5.173 5.173 0 0 0 15 20.166a5.173 5.173 0 0 0 5.167-5.167A5.174 5.174 0 0 0 15 9.833zm0 8.151A2.989 2.989 0 0 1 12.016 15 2.988 2.988 0 0 1 15 12.017 2.986 2.986 0 0 1 17.983 15 2.987 2.987 0 0 1 15 17.984z"/><circle class="st1" cx="20.332" cy="9.679" r="1.222"/><path class="st1" d="M19.97 4.97h-9.94c-2.79 0-5.06 2.27-5.06 5.06v9.939c0 2.791 2.27 5.06 5.06 5.06h9.939c2.791 0 5.06-2.27 5.06-5.06V10.03a5.064 5.064 0 0 0-5.059-5.06zm2.877 15a2.88 2.88 0 0 1-2.877 2.877h-9.94a2.88 2.88 0 0 1-2.877-2.877v-9.94a2.88 2.88 0 0 1 2.877-2.877h9.939a2.88 2.88 0 0 1 2.877 2.877v9.94z"/></svg>