<svg id="Layer_1" xmlns="http://www.w3.org/2000/svg" width="30" height="30" viewBox="0 0 30 30"><style>.st0{fill:#0084b1}.st1{fill:#fff}</style><path class="st0" d="M0 0h30v30H0z"/><path class="st1" d="M9.343 7.559c-.991 0-1.801.802-1.801 1.787 0 1.015.837 1.81 1.789 1.791.939.022 1.794-.754 1.796-1.784a1.796 1.796 0 0 0-1.784-1.794zm-1.057 4.946a.493.493 0 0 0-.493.493v8.948c0 .272.221.493.493.493h2.097a.493.493 0 0 0 .493-.493v-8.948a.493.493 0 0 0-.493-.493H8.286zm10.775-.253h-.538a3.014 3.014 0 0 0-2.643 1.56.373.373 0 0 0-.028-.004V12.71a.205.205 0 0 0-.205-.205H13.03a.204.204 0 0 0-.204.205v9.524c0 .113.091.205.204.205l2.674.001a.204.204 0 0 0 .204-.205v-5.502c0-.951.759-1.741 1.71-1.752.485-.005.926.189 1.243.507.313.313.507.745.507 1.223v5.525c0 .113.092.205.204.205h2.68a.204.204 0 0 0 .204-.204v-6.588a3.394 3.394 0 0 0-3.395-3.397z"/></svg>