<svg id="Layer_1" xmlns="http://www.w3.org/2000/svg" width="30" height="30" viewBox="0 0 30 30"><style>.st0{fill:#50abf1}.st1{fill:#fff}</style><path class="st0" d="M0 0h30v30H0z"/><path class="st1" d="M23.454 9.154l.007-.004c.117-.078 1.751-1.19 1.972-2.515 0 0-.916.489-2.199.917-.212.071-.435.14-.664.204a4.53 4.53 0 0 0-7.723 4.121c-.35-.014-5.677-.313-9.301-4.701 0 0-2.166 2.957 1.291 5.997 0 0-1.051-.042-1.957-.583 0 0-.333 3.582 3.581 4.498 0 0-.77.292-1.999.084 0 0 .687 2.894 4.165 3.165 0 0-2.75 2.484-6.654 1.902h.001a12.852 12.852 0 0 0 6.904 1.999c7.132 0 12.914-5.782 12.914-12.914 0-.178-.004-.355-.011-.531.258-.203 1.854-1.482 2.245-2.304 0 0-1.296.538-2.564.665h-.008z"/></svg>