<svg id="Layer_1" xmlns="http://www.w3.org/2000/svg" width="30" height="30" viewBox="0 0 30 30"><style>.st0{fill:#dc472e}.st1{fill:#fff}</style><path class="st0" d="M0 0h30v30H0z"/><path class="st1" d="M17.33 19.204a.938.938 0 0 0-.075-.333c-.055-.138-.174-.206-.323-.221-.174-.017-.314.053-.44.165a.304.304 0 0 0-.074.11l.003 3.553v.087l.035.046a.708.708 0 0 0 .376.231c.253.052.431-.053.481-.288a.832.832 0 0 0 .02-.179c0-1.056.002-2.114-.003-3.171zm4.011-.069a.48.48 0 1 0-.959 0v.829h.959v-.829z"/><path class="st1" d="M21.308 13.846a294.78 294.78 0 0 0-12.616 0 2.683 2.683 0 0 0-2.625 2.683v6.567a2.683 2.683 0 0 0 2.625 2.684c4.205.09 8.411.09 12.616 0a2.684 2.684 0 0 0 2.626-2.684V16.53a2.685 2.685 0 0 0-2.626-2.684zM9.927 23.695H8.714V16.84H7.459v-1.147h3.726v1.144H9.927v6.858zm4.339-2.845v2.846h-1.074v-.651c-.039.042-.061.064-.081.087-.231.261-.493.478-.827.593a1 1 0 0 1-.503.045.62.62 0 0 1-.487-.387 1.496 1.496 0 0 1-.111-.619c-.003-.783-.001-4.93-.001-4.97h1.071c.002.036.006 3.012.007 4.464 0 .079.001.16.016.237.04.195.189.278.376.21.216-.079.381-.228.519-.406.021-.026.021-.072.021-.109v-4.403l1.074-.003v3.066zm4.085 2.277c-.144.432-.46.652-.914.647a1.213 1.213 0 0 1-.916-.418l-.104-.111v.449h-1.076v-8.002h1.076v2.634s.06-.121.116-.184c.167-.186.369-.33.62-.394.413-.103.888.024 1.115.507.134.285.171.589.171.899.002 1.118.002 2.237.001 3.355-.001.21-.023.417-.089.618zm3.973-.225c-.186.546-.571.849-1.136.932-.35.051-.697.044-1.026-.105-.45-.203-.704-.569-.813-1.036a3.063 3.063 0 0 1-.078-.668c-.009-.876-.005-1.753-.003-2.629.001-.458.11-.881.424-1.232.358-.401.816-.55 1.339-.517.157.01.318.035.467.085.509.167.781.548.887 1.054.041.195.056.397.059.596.009.467-.003 1.497-.003 1.497h-2.06v1.477a.48.48 0 0 0 .959 0v-.759h1.107s.017.896-.123 1.305zm-4.459-10.65c.268-.052.497-.185.699-.364.114-.101.218-.213.34-.333l-.001.638h1.101V6.252h-1.101v4.405c0 .037.004.085-.016.11-.142.179-.309.331-.528.406-.18.062-.318-.025-.351-.212a.988.988 0 0 1-.016-.18v-4.53H16.9v5.079c.001.148.028.301.071.443.132.429.482.559.894.479zm-7.542-3.324l-.001 3.264h1.155l-.001-3.264c0-.054.007-.11.023-.161l1.393-4.615H11.64l-.74 3.134c-.239-1.007-.74-3.134-.74-3.134H8.907s.962 3.192 1.393 4.615a.55.55 0 0 1 .023.161zm2.501 1.837a1.577 1.577 0 0 0 3.152 0V7.681a1.577 1.577 0 0 0-3.152 0v3.084zm1.121-3.147a.455.455 0 0 1 .91 0v3.209a.455.455 0 0 1-.91 0V7.618z"/></svg>